# xmcd
#
# Track frame offsets:
#	150
#	23045
#	57242
#	63492
#	80070
#	86992
#	102160
#	106435
#	139577
#	168142
#	170307
#	194887
#	209772
#
# Disc length: 2838
#
# Revision: 1
# Processed by: cddbd v1.5.1PL0 Copyright (c) Steve Scherf et al.
# Submitted via: CDex 1.51
# Normalized: r0:TRMNUM
#
DISCID=bb0b140d
DTITLE=Boespflug, Pierre Trio - Intéreiur
DYEAR=1993
DGENRE=Jazz
TTITLE0=Voyage à Condat
TTITLE1=Fragments
TTITLE2=Miniature 1
TTITLE3=Vendredi 13
TTITLE4=Miniature 2
TTITLE5=Numéro huit
TTITLE6=Miniature 3
TTITLE7=Intérieur
TTITLE8=Matanzas
TTITLE9=Miniature 4
TTITLE10=Mac fatum
TTITLE11=Kroc
TTITLE12=Miniture 5
EXTD=YEAR: 1993
EXTT0=
EXTT1=
EXTT2=
EXTT3=
EXTT4=
EXTT5=
EXTT6=
EXTT7=
EXTT8=
EXTT9=
EXTT10=
EXTT11=
EXTT12=
PLAYORDER=
